<svg width="159" height="27" viewBox="0 0 159 27" fill="none" xmlns="http://www.w3.org/2000/svg">
<path d="M6.40302 5.15681C8.42036 4.04007 10.5034 5.39096 10.4515 7.64033C10.4176 9.08234 9.5106 10.5074 8.14912 11.0531C7.0737 11.4853 5.86478 11.2575 5.14007 10.3389C4.37933 9.37371 4.36132 8.04401 4.83598 6.91562C4.83862 6.91031 4.83913 6.9042 4.83742 6.89853C4.83571 6.89286 4.83191 6.88805 4.82678 6.88508C4.82166 6.88212 4.81559 6.88121 4.80982 6.88255C4.80406 6.8839 4.79901 6.88738 4.79572 6.89231C2.00388 10.6144 1.08739 15.5253 2.9352 19.8863C2.94806 19.9164 2.94861 19.9504 2.93675 19.981C2.92488 20.0116 2.90153 20.0366 2.87163 20.0505C2.54 20.2031 1.78032 18.7992 1.66377 18.546C-1.67161 11.319 3.62919 1.55443 11.5671 0.472653C13.6872 0.183403 16.0712 0.714223 17.8141 2.08419C17.8248 2.09252 17.8332 2.10347 17.8385 2.11597C17.8438 2.12847 17.8458 2.14212 17.8443 2.15561C17.8428 2.16911 17.8379 2.18199 17.83 2.19305C17.8221 2.2041 17.8115 2.21295 17.7993 2.21875C17.5863 2.3194 16.8415 2.09584 16.584 2.04393C12.758 1.26306 9.15778 2.44231 6.38183 5.1282C6.31755 5.19106 6.32462 5.2006 6.40302 5.15681ZM7.02477 9.17523C7.25726 9.26587 7.5279 9.23049 7.77718 9.07688C8.02645 8.92327 8.23392 8.664 8.35396 8.35611C8.4134 8.20366 8.44958 8.04386 8.46045 7.88584C8.47131 7.72782 8.45663 7.57467 8.41726 7.43514C8.37789 7.2956 8.3146 7.17241 8.23099 7.07261C8.14738 6.9728 8.0451 6.89833 7.92999 6.85345C7.6975 6.76281 7.42685 6.79819 7.17758 6.95181C6.92831 7.10542 6.72083 7.36469 6.60079 7.67257C6.54135 7.82502 6.50517 7.98482 6.49431 8.14284C6.48345 8.30086 6.49812 8.45401 6.53749 8.59355C6.57686 8.73308 6.64016 8.85627 6.72377 8.95607C6.80737 9.05588 6.90966 9.13035 7.02477 9.17523Z" fill="#DD6611"/>
<path d="M16.7099 6.75888C13.2792 10.338 9.49138 14.1512 6.34142 17.3075C6.07866 17.5713 4.93225 17.2577 4.56672 17.1941C4.03907 17.103 3.78479 16.6898 4.19694 16.2692C7.65664 12.7374 11.1156 9.20568 14.5739 5.67393C14.7562 5.48852 16.0869 5.77565 16.3846 5.82756C16.89 5.9155 17.0818 6.3711 16.7099 6.75888Z" fill="#DD6611"/>
<path d="M42.1799 13.6023C40.6414 12.2779 38.3486 12.0554 36.7636 13.3766C35.4423 14.4785 35.0853 16.4662 35.6352 18.0544C36.7201 21.1885 40.7039 21.4279 42.6778 19.0302C42.7011 19.002 42.7266 18.9995 42.7541 19.0228C43.6469 19.7532 44.2555 20.2974 44.5797 20.6556C45.084 21.2139 44.8276 21.8592 44.2978 22.2851C41.2178 24.7601 36.0611 24.5239 33.3498 21.6949C29.5419 17.7207 31.2657 11.0107 36.6174 9.49559C39.2323 8.75604 42.2614 9.15442 44.4133 10.9344C45.2567 11.6326 44.9611 12.2111 44.2438 12.832C43.755 13.2544 43.2722 13.6835 42.7954 14.1194C42.7644 14.1476 42.7322 14.1487 42.699 14.1225C42.5062 13.9657 42.325 13.7263 42.1799 13.6023Z" fill="#DD6611"/>
<path d="M142.953 16.3286C143.09 12.0863 146.371 9.34318 150.458 9.16624C154.969 8.97128 158.848 11.9549 158.784 16.6984C158.703 22.6805 152.185 25.4638 147.214 23.2102C144.497 21.978 142.855 19.3981 142.953 16.3286ZM147.663 14.1916C146.462 16.1602 146.913 19.1554 149.118 20.2351C150.861 21.0901 152.988 20.5741 154.053 18.916C155.214 17.1063 154.872 14.4098 153.032 13.1522C151.347 12.0005 148.762 12.3914 147.663 14.1916Z" fill="#DD6611"/>
<path d="M65.9663 17.6784L71.7142 9.50313C71.7295 9.48094 71.7501 9.46287 71.7741 9.45049C71.7981 9.43811 71.8248 9.43181 71.8519 9.43214C72.5039 9.44274 73.1622 9.44627 73.8269 9.44274C74.9828 9.43638 75.5285 9.81145 75.5295 10.9949C75.5302 15.1928 75.5302 19.392 75.5295 23.5927C75.5295 23.6056 75.5243 23.618 75.515 23.6271C75.5056 23.6363 75.493 23.6414 75.4797 23.6414C74.5544 23.6365 73.6249 23.6375 72.6911 23.6446C71.9982 23.6499 71.622 23.1943 71.6188 22.5056C71.6075 20.2043 71.6051 17.8995 71.6114 15.5912C71.6114 15.5672 71.6032 15.544 71.5881 15.5255C71.4875 15.3994 71.4885 15.4852 71.4345 15.5615C69.5478 18.2209 67.6746 20.8888 65.8148 23.5651C65.7994 23.5877 65.7787 23.6061 65.7545 23.6188C65.7303 23.6316 65.7034 23.6382 65.676 23.6382C64.7733 23.6404 63.8723 23.6407 62.9731 23.6393C62.3395 23.6372 61.9698 23.3956 61.9687 22.7451C61.9673 18.3283 61.9669 13.909 61.9676 9.48724C61.9676 9.48075 61.969 9.47432 61.9715 9.46834C61.9741 9.46235 61.9779 9.45693 61.9826 9.45239C61.9873 9.44785 61.9929 9.44429 61.9991 9.4419C62.0053 9.43951 62.0119 9.43836 62.0185 9.4385C62.6782 9.44697 63.3415 9.44592 64.0083 9.43532C65.4535 9.41201 65.8826 9.6949 65.8847 11.139C65.8889 13.304 65.8896 15.4753 65.8868 17.653C65.8866 17.6624 65.8894 17.6716 65.8948 17.6793C65.9003 17.687 65.908 17.6927 65.917 17.6955C65.926 17.6984 65.9356 17.6983 65.9445 17.6952C65.9534 17.6921 65.961 17.6862 65.9663 17.6784Z" fill="#DD6611"/>
<path d="M103.668 16.3095C103.664 16.3168 103.662 16.3249 103.662 16.3331C103.662 16.3414 103.664 16.3495 103.668 16.3569C103.672 16.3642 103.677 16.3706 103.684 16.3754C103.691 16.3803 103.698 16.3834 103.706 16.3847C104.562 16.5076 105.213 16.9381 105.657 17.6763C106.843 19.6463 108.03 21.6053 109.217 23.5534C109.222 23.5619 109.225 23.5716 109.225 23.5816C109.225 23.5915 109.223 23.6014 109.218 23.6101C109.213 23.6188 109.206 23.6261 109.197 23.6312C109.188 23.6364 109.178 23.6391 109.168 23.6393H104.78C104.744 23.6393 104.718 23.6241 104.7 23.5937C103.827 22.0786 102.945 20.5737 102.054 19.0791C101.496 18.1446 100.923 17.7112 99.8508 17.5809C99.7413 17.5675 99.6866 17.6162 99.6866 17.7271V23.5884C99.6866 23.5949 99.6853 23.6014 99.6828 23.6075C99.6804 23.6135 99.6768 23.619 99.6723 23.6236C99.6678 23.6282 99.6624 23.6319 99.6565 23.6344C99.6506 23.6369 99.6442 23.6382 99.6378 23.6382C98.7718 23.641 97.9037 23.641 97.0335 23.6382C95.6339 23.6329 95.69 22.8393 95.6847 21.6993C95.6664 17.7197 95.6657 13.7398 95.6826 9.75949C95.6826 9.68886 95.6837 9.64153 95.6858 9.61752C95.6957 9.50733 95.7557 9.45152 95.8659 9.45011C96.6316 9.44093 97.38 9.43775 98.111 9.44057C99.2543 9.44587 99.6887 9.78598 99.6876 10.9229C99.6855 12.2508 99.6855 13.5462 99.6876 14.8092C99.6877 14.8368 99.6936 14.864 99.7051 14.8891C99.7165 14.9142 99.7331 14.9366 99.7539 14.9547C99.7746 14.9729 99.799 14.9864 99.8254 14.9943C99.8518 15.0023 99.8796 15.0046 99.9069 15.001C101.796 14.7477 102.318 13.845 103.349 12.1763C103.897 11.2891 104.44 10.398 104.978 9.50309C104.996 9.47201 105.023 9.45612 105.059 9.45541C106.438 9.42292 107.372 9.4215 107.862 9.45117C108.602 9.49673 108.77 10.1791 108.421 10.7332C107.569 12.0894 106.701 13.436 105.819 14.7732C105.235 15.6579 104.758 16.1421 103.747 16.265C103.707 16.2692 103.681 16.284 103.668 16.3095Z" fill="#DD6611"/>
<path d="M114.671 17.6105L120.391 9.49137C120.412 9.46241 120.44 9.44758 120.476 9.44687C121.085 9.43769 121.692 9.43345 122.298 9.43416C123.596 9.43522 124.253 9.72341 124.257 11.1697C124.269 15.3046 124.272 19.4396 124.265 23.5746C124.265 23.6148 124.245 23.635 124.205 23.635C123.279 23.642 122.362 23.6456 121.454 23.6456C120.748 23.6466 120.25 23.1497 120.247 22.4388C120.239 20.1551 120.238 17.8666 120.243 15.573C120.243 15.5581 120.238 15.5435 120.229 15.5318C120.219 15.52 120.206 15.5118 120.191 15.5084C120.164 15.5021 120.14 15.5137 120.118 15.5434C117.183 19.6967 115.336 22.3176 114.577 23.4061C114.472 23.5566 114.418 23.6371 114.215 23.6381C113.362 23.6403 112.496 23.6095 111.645 23.6625C111.154 23.6936 110.821 23.4665 110.648 22.9812C110.544 22.692 110.599 22.3529 110.599 22.1008C110.6 17.8987 110.6 13.6934 110.6 9.48502C110.599 9.47936 110.6 9.47374 110.603 9.46847C110.605 9.46321 110.608 9.45841 110.612 9.45436C110.616 9.45031 110.62 9.44709 110.626 9.4449C110.631 9.4427 110.636 9.44157 110.642 9.44158C111.404 9.44228 112.168 9.44193 112.934 9.44051C113.842 9.43946 114.519 9.63865 114.519 10.6526C114.519 12.9193 114.521 15.223 114.522 17.5639C114.522 17.5812 114.527 17.5981 114.538 17.6121C114.548 17.6261 114.562 17.6364 114.579 17.6416C114.596 17.6468 114.613 17.6466 114.63 17.641C114.647 17.6354 114.661 17.6247 114.671 17.6105Z" fill="#DD6611"/>
<path d="M136.77 14.7688V9.49553C136.77 9.4812 136.776 9.46746 136.786 9.45732C136.796 9.44719 136.81 9.44149 136.824 9.44149C137.614 9.4422 138.41 9.44185 139.212 9.44043C140.116 9.43937 140.795 9.64069 140.795 10.6515C140.796 14.963 140.797 19.2781 140.796 23.5967C140.796 23.608 140.792 23.6188 140.783 23.6267C140.775 23.6346 140.764 23.6391 140.753 23.6391C139.911 23.6384 139.068 23.6388 138.223 23.6402C137.424 23.6412 136.824 23.4622 136.8 22.5754C136.761 21.1203 136.754 19.6631 136.779 18.2038C136.78 18.1943 136.778 18.185 136.774 18.1763C136.771 18.1675 136.766 18.1596 136.759 18.1529C136.752 18.1462 136.745 18.1408 136.736 18.1372C136.727 18.1336 136.718 18.1317 136.709 18.1317C134.992 18.1282 133.266 18.1268 131.532 18.1275C131.366 18.1275 131.282 18.2098 131.281 18.3743C131.266 20.1127 131.258 21.8535 131.258 23.5967C131.258 23.608 131.254 23.6188 131.246 23.6267C131.238 23.6346 131.227 23.6391 131.216 23.6391C130.326 23.6384 129.433 23.6388 128.539 23.6402C127.403 23.6412 127.236 22.9112 127.235 21.9439C127.234 17.7941 127.234 13.6411 127.234 9.48494C127.234 9.47937 127.235 9.47386 127.238 9.46872C127.24 9.46357 127.243 9.4589 127.247 9.45497C127.251 9.45103 127.256 9.44791 127.261 9.44578C127.266 9.44365 127.272 9.44255 127.278 9.44255C128.01 9.44114 128.746 9.44114 129.486 9.44255C130.64 9.44467 131.255 9.56334 131.258 10.8666C131.261 12.1027 131.262 13.343 131.26 14.5876C131.26 14.6879 131.306 14.7571 131.398 14.7953C131.49 14.8327 131.621 14.8521 131.79 14.8535C133.43 14.8648 135.069 14.8574 136.709 14.8313C136.749 14.8306 136.77 14.8097 136.77 14.7688Z" fill="#DD6611"/>
<path d="M55.035 16.338C55.0356 16.3493 55.04 16.3599 55.0473 16.3684C55.0545 16.3768 55.0644 16.3825 55.0752 16.3846C56.0457 16.5563 56.5278 16.9875 57.0629 17.8553C58.234 19.7582 59.3942 21.6667 60.5434 23.5809C60.5667 23.6198 60.5558 23.6392 60.5106 23.6392H56.1411C56.1137 23.6392 56.0868 23.6319 56.063 23.6181C56.0392 23.6044 56.0193 23.5846 56.0055 23.5608C55.1035 22.0068 54.1838 20.4532 53.2465 18.8999C52.7739 18.1166 52.0782 17.6808 51.1592 17.5925C51.1459 17.5912 51.1325 17.5926 51.1198 17.5968C51.1071 17.601 51.0954 17.6078 51.0855 17.6168C51.0756 17.6258 51.0678 17.6368 51.0624 17.649C51.057 17.6613 51.0543 17.6745 51.0543 17.6878V23.5894C51.0543 23.6032 51.0489 23.6164 51.0391 23.6261C51.0294 23.6358 51.0162 23.6413 51.0024 23.6413C50.0658 23.6364 49.1263 23.6371 48.1841 23.6434C47.3121 23.6487 47.0313 23.1518 47.0303 22.3529C47.0274 18.0675 47.0271 13.7824 47.0292 9.49773C47.0292 9.48312 47.035 9.4691 47.0453 9.45877C47.0557 9.44844 47.0697 9.44264 47.0843 9.44264C47.9319 9.44122 48.7785 9.44087 49.624 9.44158C50.9865 9.4437 51.0522 10.2712 51.0533 11.3752C51.054 12.5414 51.0543 13.7083 51.0543 14.8759C51.0542 14.8925 51.0577 14.909 51.0644 14.9243C51.0711 14.9395 51.081 14.9532 51.0933 14.9645C51.1057 14.9758 51.1203 14.9844 51.1362 14.9897C51.1521 14.9951 51.169 14.9971 51.1857 14.9956C52.3907 14.8896 53.3104 14.3306 53.9447 13.3184C54.6956 12.1218 55.4393 10.9207 56.1761 9.71493C56.2269 9.63088 56.2855 9.55389 56.3519 9.48396C56.3774 9.45641 56.4088 9.44264 56.4462 9.44264C57.0745 9.44052 59.1597 9.28477 59.611 9.58143C60.3633 10.0762 59.6068 10.9419 59.2752 11.4631C58.6712 12.4104 58.0638 13.3551 57.4528 14.2974C56.7238 15.4194 56.3604 16.0519 55.1282 16.2533C55.0639 16.2639 55.0328 16.2921 55.035 16.338Z" fill="#DD6611"/>
<path d="M92.0092 20.4404C92.9236 20.4521 93.8305 20.5368 93.8432 21.6991C93.8602 23.2877 93.8648 24.8583 93.857 26.4108C93.857 26.4758 93.8245 26.5076 93.7595 26.5062C92.9451 26.4899 92.1515 26.4924 91.3788 26.5136C91.0412 26.5228 90.7936 26.4832 90.6361 26.3949C89.9453 26.005 90.1413 24.4687 90.1572 23.7652C90.1586 23.6811 90.1173 23.6391 90.0332 23.6391C87.1365 23.6377 84.2199 23.6391 81.2836 23.6433C80.4593 23.6455 82.0338 26.4924 79.7717 26.5019C78.9799 26.5055 78.1898 26.5037 77.4016 26.4966C77.3542 26.4959 77.3306 26.4719 77.3306 26.4246V20.5209C77.3306 20.5167 77.3314 20.5124 77.3332 20.5085C77.3349 20.5046 77.3374 20.501 77.3405 20.4981C77.3437 20.4951 77.3475 20.4928 77.3516 20.4913C77.3557 20.4897 77.3601 20.489 77.3645 20.4891C78.2312 20.5262 78.9453 20.3292 79.35 19.4868C79.8332 18.4792 79.9656 17.3593 80.1044 16.2722C80.382 14.096 80.3587 11.7905 80.4 9.593C80.4021 9.49129 80.4537 9.44043 80.5547 9.44043C83.8032 9.44114 87.0817 9.44255 90.3903 9.44467C91.9668 9.44573 91.9425 10.483 91.9456 11.7958C91.9548 14.6522 91.9559 17.5136 91.9488 20.38C91.9488 20.3958 91.9552 20.4111 91.9664 20.4223C91.9777 20.4336 91.9931 20.4401 92.0092 20.4404ZM87.8591 12.6179L83.9356 12.6243C83.8918 12.6243 83.8689 12.6466 83.8668 12.6911C83.7788 14.4785 83.7555 16.0243 83.443 17.9961C83.3102 18.8359 83.052 19.6182 82.6684 20.3429C82.6621 20.3552 82.659 20.3688 82.6594 20.3826C82.6599 20.3964 82.6639 20.4098 82.671 20.4216C82.6781 20.4334 82.6881 20.4432 82.7001 20.45C82.7121 20.4568 82.7256 20.4605 82.7394 20.4605H87.893C87.9017 20.4605 87.91 20.4571 87.9162 20.4509C87.9223 20.4448 87.9258 20.4364 87.9258 20.4277V12.6858C87.9258 12.6405 87.9036 12.6179 87.8591 12.6179Z" fill="#DD6611"/>
<path d="M11.8171 18.7466C11.109 18.3779 10.6023 17.6933 10.4083 16.8433C10.2144 15.9932 10.3493 15.0474 10.7831 14.2139C10.998 13.8012 11.2798 13.4285 11.6125 13.1171C11.9451 12.8056 12.3221 12.5615 12.722 12.3988C13.1218 12.236 13.5367 12.1577 13.9428 12.1684C14.349 12.1791 14.7385 12.2786 15.0891 12.4611C15.7973 12.8297 16.304 13.5144 16.4979 14.3644C16.6919 15.2145 16.557 16.1603 16.1231 16.9938C15.9083 17.4065 15.6265 17.7792 15.2938 18.0906C14.9612 18.4021 14.5841 18.6461 14.1843 18.8089C13.7844 18.9717 13.3696 19.0499 12.9634 19.0392C12.5573 19.0285 12.1678 18.9291 11.8171 18.7466ZM12.9565 16.8691C13.0826 16.9183 13.2203 16.9342 13.3617 16.9159C13.5031 16.8976 13.6454 16.8454 13.7805 16.7624C13.9156 16.6794 14.0409 16.5671 14.1491 16.4321C14.2574 16.297 14.3466 16.1417 14.4115 15.9751C14.5427 15.6387 14.5673 15.2766 14.4799 14.9685C14.3925 14.6604 14.2003 14.4315 13.9456 14.3322C13.8195 14.283 13.6818 14.2671 13.5404 14.2854C13.399 14.3037 13.2567 14.3559 13.1216 14.4389C12.9864 14.5219 12.8612 14.6342 12.7529 14.7693C12.6446 14.9043 12.5555 15.0596 12.4905 15.2262C12.3594 15.5626 12.3348 15.9247 12.4221 16.2328C12.5095 16.5409 12.7017 16.7698 12.9565 16.8691Z" fill="#DD6611"/>
<path d="M11.0725 23.3202C14.6855 20.5018 17.9351 17.1368 20.7269 14.1182C20.7454 14.0978 20.7705 14.0845 20.7977 14.0806C20.825 14.0766 20.8527 14.0823 20.8763 14.0965C20.8998 14.1108 20.9177 14.1328 20.9268 14.1588C20.9358 14.1848 20.9356 14.2132 20.9261 14.239C19.3474 18.5915 15.923 22.5965 11.1647 23.5225C11.1395 23.5274 11.1135 23.5236 11.0907 23.5118C11.0679 23.5 11.0497 23.4809 11.0391 23.4576C11.0285 23.4342 11.026 23.408 11.0321 23.3831C11.0381 23.3582 11.0524 23.336 11.0725 23.3202Z" fill="#DD6611"/>
</svg>
